<svg width="64" height="63" viewBox="0 0 64 63" fill="none" xmlns="http://www.w3.org/2000/svg">
<g clip-path="url(#clip0_0_12872)">
<path d="M27.578 40.5879C36.1505 40.5879 40.8393 33.4856 40.8393 27.3266C40.8393 27.1249 40.8393 26.9241 40.8256 26.7242C41.7378 26.0644 42.5252 25.2474 43.1509 24.3116C42.3004 24.6887 41.398 24.9359 40.474 25.0449C41.447 24.4625 42.1752 23.5463 42.523 22.467C41.6082 23.0099 40.6072 23.3926 39.5635 23.5983C38.8608 22.8511 37.9314 22.3563 36.9191 22.1905C35.9068 22.0247 34.8682 22.1972 33.9638 22.6812C33.0594 23.1652 32.3398 23.9337 31.9162 24.8679C31.4926 25.8022 31.3888 26.8499 31.6207 27.8491C29.7677 27.7562 27.9549 27.2746 26.3001 26.4357C24.6453 25.5967 23.1853 24.4192 22.0151 22.9795C21.4191 24.0055 21.2365 25.2202 21.5046 26.3761C21.7727 27.532 22.4712 28.5423 23.458 29.2012C22.7163 29.1795 21.9907 28.9794 21.3426 28.6178V28.6769C21.3429 29.753 21.7154 30.7958 22.397 31.6286C23.0785 32.4613 24.0271 33.0327 25.0819 33.2458C24.3957 33.4329 23.6757 33.4603 22.9774 33.3257C23.2753 34.2517 23.8552 35.0615 24.6359 35.6418C25.4166 36.2222 26.3591 36.544 27.3317 36.5624C26.3654 37.322 25.2588 37.8836 24.0752 38.2151C22.8916 38.5466 21.6543 38.6415 20.434 38.4943C22.5654 39.8621 25.0454 40.5876 27.578 40.5842" fill="white"/>
</g>
<defs>
<clipPath id="clip0_0_12872">
<rect width="22.717" height="22.717" fill="white" transform="translate(20.434 20)"/>
</clipPath>
</defs>
</svg>
