<svg width="63" height="63" viewBox="0 0 63 63" fill="none" xmlns="http://www.w3.org/2000/svg">
<g clip-path="url(#clip0_0_12870)">
<path fill-rule="evenodd" clip-rule="evenodd" d="M31.3585 20C37.6316 20 42.717 25.0854 42.717 31.3585C42.717 37.0278 38.5634 41.7269 33.1333 42.579V34.6418H35.7799L36.2835 31.3585H33.1333V29.2288C33.1333 28.3305 33.5734 27.454 34.9843 27.454H36.4166V24.6588C36.4166 24.6588 36.2585 24.6318 36 24.5967C35.6097 24.5436 34.9903 24.472 34.3399 24.4464C34.1855 24.4404 34.0293 24.4369 33.874 24.4369C31.2795 24.4369 29.5837 26.0094 29.5837 28.8561V31.3585H26.6997V34.6418H29.5837V42.579C24.1536 41.7269 20 37.0278 20 31.3585C20 25.0854 25.0854 20 31.3585 20Z" fill="white"/>
</g>
<defs>
<clipPath id="clip0_0_12870">
<rect width="22.717" height="22.717" fill="white" transform="translate(20 20)"/>
</clipPath>
</defs>
</svg>
