<svg width="64" height="63" viewBox="0 0 64 63" fill="none" xmlns="http://www.w3.org/2000/svg">
<g clip-path="url(#clip0_0_12871)">
<path fill-rule="evenodd" clip-rule="evenodd" d="M32.0755 22.0454C35.1103 22.0454 35.4697 22.0587 36.6632 22.112C37.7725 22.1608 38.3714 22.3471 38.7708 22.5024C39.2988 22.7065 39.6803 22.955 40.0752 23.3499C40.4745 23.7492 40.7186 24.1263 40.9227 24.6543C41.078 25.0536 41.2643 25.6571 41.3131 26.7619C41.3664 27.9598 41.3797 28.3192 41.3797 31.3496C41.3797 34.3845 41.3664 34.7439 41.3131 35.9374C41.2643 37.0466 41.078 37.6456 40.9227 38.0449C40.7186 38.5729 40.4701 38.9545 40.0752 39.3494C39.6759 39.7487 39.2988 39.9927 38.7708 40.1968C38.3714 40.3521 37.768 40.5385 36.6632 40.5873C35.4653 40.6405 35.1059 40.6538 32.0755 40.6538C29.0406 40.6538 28.6812 40.6405 27.4877 40.5873C26.3785 40.5385 25.7795 40.3521 25.3802 40.1968C24.8522 39.9927 24.4706 39.7443 24.0757 39.3494C23.6764 38.95 23.4324 38.5729 23.2283 38.0449C23.073 37.6456 22.8866 37.0422 22.8378 35.9374C22.7846 34.7394 22.7713 34.38 22.7713 31.3496C22.7713 28.3148 22.7846 27.9554 22.8378 26.7619C22.8866 25.6526 23.073 25.0536 23.2283 24.6543C23.4324 24.1263 23.6808 23.7448 24.0757 23.3499C24.475 22.9505 24.8522 22.7065 25.3802 22.5024C25.7795 22.3471 26.3829 22.1608 27.4877 22.112C28.6812 22.0587 29.0406 22.0454 32.0755 22.0454ZM32.0755 20C28.9918 20 28.6058 20.0133 27.3945 20.0666C26.1877 20.1198 25.358 20.315 24.6392 20.5945C23.8894 20.8874 23.2549 21.2734 22.6249 21.9079C21.9904 22.5379 21.6044 23.1724 21.3115 23.9178C21.032 24.641 20.8368 25.4663 20.7835 26.6731C20.7303 27.8888 20.717 28.2748 20.717 31.3585C20.717 34.4421 20.7303 34.8282 20.7835 36.0394C20.8368 37.2463 21.032 38.076 21.3115 38.7948C21.6044 39.5446 21.9904 40.1791 22.6249 40.8091C23.2549 41.4392 23.8894 41.8296 24.6348 42.118C25.358 42.3975 26.1833 42.5927 27.3901 42.646C28.6014 42.6992 28.9874 42.7125 32.071 42.7125C35.1547 42.7125 35.5407 42.6992 36.752 42.646C37.9588 42.5927 38.7885 42.3975 39.5073 42.118C40.2527 41.8296 40.8872 41.4392 41.5172 40.8091C42.1473 40.1791 42.5377 39.5446 42.8261 38.7992C43.1056 38.076 43.3009 37.2507 43.3541 36.0439C43.4073 34.8326 43.4207 34.4466 43.4207 31.3629C43.4207 28.2793 43.4073 27.8933 43.3541 26.682C43.3009 25.4751 43.1056 24.6454 42.8261 23.9267C42.5466 23.1724 42.1606 22.5379 41.5261 21.9079C40.896 21.2778 40.2616 20.8874 39.5162 20.599C38.793 20.3195 37.9677 20.1242 36.7608 20.071C35.5451 20.0133 35.1591 20 32.0755 20ZM32.0755 25.524C28.8543 25.524 26.2409 28.1373 26.2409 31.3585C26.2409 34.5797 28.8543 37.193 32.0755 37.193C35.2967 37.193 37.91 34.5797 37.91 31.3585C37.91 28.1373 35.2967 25.524 32.0755 25.524ZM32.0755 35.1432C29.9857 35.1432 28.2908 33.4483 28.2908 31.3585C28.2908 29.2687 29.9857 27.5738 32.0755 27.5738C34.1653 27.5738 35.8602 29.2687 35.8602 31.3585C35.8602 33.4483 34.1653 35.1432 32.0755 35.1432ZM38.1407 26.6546C38.8906 26.6546 39.5029 26.0468 39.5029 25.2925C39.5029 24.5427 38.8906 23.9304 38.1407 23.9304C37.3909 23.9304 36.7786 24.5382 36.7786 25.2925C36.7786 26.0423 37.3865 26.6546 38.1407 26.6546Z" fill="white"/>
</g>
<defs>
<clipPath id="clip0_0_12871">
<rect width="22.717" height="22.717" fill="white" transform="translate(20.717 20)"/>
</clipPath>
</defs>
</svg>
