<svg width="19" height="24" viewBox="0 0 19 24" fill="none" xmlns="http://www.w3.org/2000/svg">
<path d="M15.9009 9H15.1509V6C15.1509 2.691 12.4599 0 9.15088 0C5.84188 0 3.15088 2.691 3.15088 6V9H2.40088C1.16088 9 0.150879 10.009 0.150879 11.25V21.75C0.150879 22.991 1.16088 24 2.40088 24H15.9009C17.1409 24 18.1509 22.991 18.1509 21.75V11.25C18.1509 10.009 17.1409 9 15.9009 9ZM5.15088 6C5.15088 3.794 6.94488 2 9.15088 2C11.3569 2 13.1509 3.794 13.1509 6V9H5.15088V6ZM10.1509 16.722V19C10.1509 19.552 9.70388 20 9.15088 20C8.59788 20 8.15088 19.552 8.15088 19V16.722C7.55588 16.375 7.15088 15.737 7.15088 15C7.15088 13.897 8.04788 13 9.15088 13C10.2539 13 11.1509 13.897 11.1509 15C11.1509 15.737 10.7459 16.375 10.1509 16.722Z" fill="#D9D9D9"/>
</svg>
